<svg xmlns="http://www.w3.org/2000/svg" xmlns:xlink="http://www.w3.org/1999/xlink" width="500" zoomAndPan="magnify" viewBox="0 0 375 374.999991" height="500" preserveAspectRatio="xMidYMid meet" version="1.0"><defs><clipPath id="929d3b235f"><path d="M 59.609375 97 L 315.359375 97 L 315.359375 278 L 59.609375 278 Z M 59.609375 97 " clip-rule="nonzero"/></clipPath></defs><rect x="-37.5" width="450" fill="#ffffff" y="-37.499999" height="449.999989" fill-opacity="1"/><rect x="-37.5" width="450" fill="#d9d9d9" y="-37.499999" height="449.999989" fill-opacity="1"/><g clip-path="url(#929d3b235f)"><path fill="#02441f" d="M 165.015625 164.640625 C 152.683594 176.972656 152.679688 197.035156 165.015625 209.367188 C 177.347656 221.703125 197.414062 221.707031 209.746094 209.375 C 222.082031 197.039062 222.082031 176.964844 209.75 164.632812 C 197.414062 152.300781 177.347656 152.304688 165.015625 164.640625 Z M 240.230469 252.390625 C 242.074219 250.550781 243.792969 248.636719 245.433594 246.671875 C 236.644531 250.789062 227.113281 253.132812 217.347656 253.363281 C 200.230469 253.78125 174.203125 248.082031 147.472656 218.703125 C 147.3125 218.542969 147.128906 218.414062 146.964844 218.25 C 130.28125 201.566406 130.285156 174.417969 146.972656 157.730469 C 154.808594 149.898438 164.960938 145.78125 175.25 145.3125 C 163.777344 138.511719 151.84375 135.03125 139.855469 135.296875 C 124.921875 135.636719 110.546875 141.828125 99.300781 152.460938 L 97.039062 154.722656 C 95.867188 155.945312 94.699219 157.15625 93.613281 158.46875 L 93.433594 158.328125 L 59.621094 192.140625 L 119.875 252.394531 C 153.058594 285.578125 207.046875 285.574219 240.230469 252.390625 Z M 255.144531 122.597656 L 315.398438 182.851562 L 281.585938 216.664062 L 281.410156 216.523438 C 280.320312 217.835938 279.152344 219.050781 277.980469 220.269531 L 275.71875 222.53125 C 264.472656 233.164062 250.097656 239.355469 235.167969 239.695312 C 223.175781 239.960938 211.242188 236.480469 199.773438 229.679688 C 210.0625 229.210938 220.210938 225.097656 228.050781 217.261719 C 244.738281 200.574219 244.738281 173.425781 228.054688 156.742188 C 227.890625 156.578125 227.707031 156.449219 227.550781 156.289062 C 200.816406 126.914062 174.792969 121.210938 157.671875 121.628906 C 147.90625 121.859375 138.375 124.203125 129.585938 128.320312 C 131.226562 126.355469 132.949219 124.441406 134.789062 122.601562 C 167.972656 89.417969 221.960938 89.414062 255.144531 122.597656 " fill-opacity="1" fill-rule="nonzero"/></g></svg>